<?xml version="1.0" encoding="utf-8"?>
<!-- Generator: Adobe Illustrator 21.0.0, SVG Export Plug-In . SVG Version: 6.00 Build 0)  -->
<svg version="1.1" id="Capa_1" xmlns="http://www.w3.org/2000/svg" xmlns:xlink="http://www.w3.org/1999/xlink" x="0px" y="0px"
	 viewBox="0 0 512 512" style="enable-background:new 0 0 512 512;" xml:space="preserve">
<style type="text/css">
	.st0{fill:#303C42;}
	.st1{fill:#4665AC;}
	.st2{opacity:0.1;enable-background:new    ;}
	.st3{fill:#F95D5D;}
	.st4{fill:url(#SVGID_1_);}
</style>
<path class="st0" d="M496.4,140L372,15.6C362,5.6,348.6,0,334.3,0H177.7C163.4,0,150,5.6,140,15.6L15.6,140C5.5,150,0,163.4,0,177.7
	v156.6C0,348.6,5.5,362,15.6,372L140,496.4c10.1,10.1,23.5,15.6,37.7,15.6h156.7c14.2,0,27.6-5.6,37.7-15.6L496.4,372
	c10.1-10.1,15.6-23.5,15.6-37.7V177.7C512,163.4,506.5,150,496.4,140z"/>
<path class="st1" d="M490.7,334.3c0,8.6-3.3,16.6-9.4,22.6L357,481.3c-6,6-14.2,9.4-22.6,9.4H177.7c-8.4,0-16.7-3.4-22.6-9.4
	L30.7,357c-6-6.1-9.4-14.1-9.4-22.6V177.7c0-8.6,3.3-16.6,9.4-22.6L155,30.7c6-6,14.2-9.4,22.6-9.4h156.7c8.4,0,16.7,3.4,22.6,9.4
	L481.3,155c6,6.1,9.4,14.1,9.4,22.6L490.7,334.3L490.7,334.3z"/>
<path class="st2" d="M481.3,155l-1.6-1.6c0.1,1,0.3,1.9,0.3,2.9V313c0,8.6-3.3,16.6-9.4,22.6L346.3,460c-6,6-14.2,9.4-22.6,9.4H167
	c-8.4,0-16.7-3.4-22.6-9.4L21.6,337.2c0.7,7.5,3.7,14.4,9.1,19.8L155,481.3c6,6,14.2,9.4,22.6,9.4h156.7c8.4,0,16.7-3.4,22.6-9.4
	L481.3,357c6-6.1,9.4-14.1,9.4-22.6V177.7C490.7,169.1,487.3,161.1,481.3,155z"/>
<path class="st0" d="M363.8,203.7c-12.8,2.8-23.7,10.4-30.8,21.8L320,248.2V117.3c0-17.6-14.4-32-32-32c-4.2,0-8.2,0.9-11.9,2.3
	c-3.7-13.6-16-23.7-30.8-23.7c-11.4,0-21.3,6-27,14.9c-4.7-2.6-10-4.3-15.7-4.3c-17.6,0-32,14.4-32,32V130c-3.4-1.2-6.9-2-10.7-2
	c-17.6,0-32,14.4-32,32v167.2c0,66.6,54.2,120.8,120.8,120.8c53.7,0,100.2-34.6,115.7-86.1l40.5-139.3c1.3-4.5-0.5-9.3-4.3-11.9
	C389.7,203.5,376.7,201,363.8,203.7z"/>
<path class="st3" d="M344,355.8c-12.7,42.4-51,70.9-95.2,70.9c-54.8,0-99.4-44.6-99.4-99.4V160c0-5.9,4.8-10.7,10.7-10.7
	s10.7,4.8,10.7,10.7v64c0,5.9,4.8,10.7,10.7,10.7S192,229.9,192,224V106.7c0-5.9,4.8-10.7,10.7-10.7s10.7,4.8,10.7,10.7v106.7
	c0,5.9,4.8,10.7,10.7,10.7s10.7-4.8,10.7-10.7V96c0-5.9,4.8-10.7,10.7-10.7S256,90.1,256,96v128c0,5.9,4.8,10.7,10.7,10.7
	s10.7-4.8,10.7-10.7V117.3c0-5.9,4.8-10.7,10.7-10.7s10.7,4.8,10.7,10.7V288c0,4.8,3.2,9.1,7.9,10.3c4.7,1.3,9.6-0.8,12-5l32.8-56.8
	c3.9-6.2,9.9-10.4,17-11.9c4.6-1,9.2-0.8,13.6,0.6L344,355.8z"/>
<path class="st2" d="M377.6,224.5L342,347.1c-12.7,42.4-51,70.9-95.2,70.9c-46,0-84.4-31.6-95.7-74.1c8,46.9,48.6,82.7,97.7,82.7
	c44.2,0,82.5-28.5,95.2-70.9l37.9-130.6C380.5,224.8,379.1,224.7,377.6,224.5z"/>
<linearGradient id="SVGID_1_" gradientUnits="userSpaceOnUse" x1="-85.2578" y1="44.7872" x2="-62.3048" y2="55.4908" gradientTransform="matrix(21.3333 0 0 21.3333 1829.9987 -813.6302)">
	<stop  offset="0" style="stop-color:#FFFFFF;stop-opacity:0.2"/>
	<stop  offset="1" style="stop-color:#FFFFFF;stop-opacity:0"/>
</linearGradient>
<path class="st4" d="M496.4,140L372,15.6C362,5.6,348.6,0,334.3,0H177.7C163.4,0,150,5.6,140,15.6L15.6,140C5.5,150,0,163.4,0,177.7
	v156.6C0,348.6,5.5,362,15.6,372L140,496.4c10.1,10.1,23.5,15.6,37.7,15.6h156.7c14.2,0,27.6-5.6,37.7-15.6L496.4,372
	c10.1-10.1,15.6-23.5,15.6-37.7V177.7C512,163.4,506.5,150,496.4,140z"/>
</svg>
